<?xml version="1.0" standalone="no"?>
<!DOCTYPE svg PUBLIC "-//W3C//DTD SVG 20010904//EN"
 "http://www.w3.org/TR/2001/REC-SVG-20010904/DTD/svg10.dtd">
<svg version="1.0" xmlns="http://www.w3.org/2000/svg"
 width="460.000000pt" height="460.000000pt" viewBox="0 0 460.000000 460.000000"
 preserveAspectRatio="xMidYMid meet">
<metadata>
Created by potrace 1.11, written by Peter Selinger 2001-2013
</metadata>
<g transform="translate(0.000000,460.000000) scale(0.100000,-0.100000)"
fill="#000000" stroke="none">
<path d="M2675 4014 c-100 -16 -252 -80 -332 -141 -37 -29 -37 -30 -19 55 l14
62 -183 0 -182 0 -12 -57 c-6 -32 -23 -112 -37 -178 -14 -66 -27 -130 -30
-142 -4 -23 -6 -23 -174 -23 -94 0 -170 3 -170 8 0 4 9 48 19 97 11 50 27 126
36 170 9 44 18 90 21 103 l4 22 -182 -2 -183 -3 -17 -80 c-81 -390 -121 -580
-133 -635 -22 -103 -53 -249 -69 -325 -9 -38 -16 -73 -16 -77 0 -5 83 -8 184
-8 l183 0 11 63 c15 84 61 308 68 330 5 15 22 17 176 17 l170 0 -5 -22 c-11
-42 -60 -272 -71 -333 l-11 -60 -148 -3 c-81 -1 -147 -5 -147 -8 0 -5 17 -50
126 -329 34 -88 65 -170 69 -183 5 -18 -8 -41 -71 -120 -43 -53 -80 -99 -83
-102 -4 -3 -42 -50 -85 -105 -44 -55 -82 -102 -86 -105 -3 -3 -24 -27 -45 -55
-22 -27 -52 -63 -67 -80 -16 -16 -28 -33 -28 -37 0 -5 47 -8 105 -8 l106 0 -7
-37 c-3 -21 -17 -87 -30 -148 -13 -60 -31 -144 -40 -185 -9 -41 -24 -111 -34
-155 -36 -162 -43 -228 -31 -300 15 -87 47 -148 108 -208 67 -68 143 -104 263
-124 95 -17 106 -17 202 0 56 9 126 28 156 42 67 31 66 31 46 0 l-16 -25 203
0 204 1 129 170 c71 93 132 172 137 174 4 3 33 -73 65 -170 l57 -175 189 0
189 0 -6 23 c-9 28 -144 379 -184 477 -17 41 -31 82 -31 90 0 8 15 31 33 50
17 20 57 67 87 105 30 39 57 72 60 75 3 3 17 21 32 42 15 20 34 42 41 50 7 7
36 42 63 78 28 36 65 81 82 100 18 19 32 38 32 42 0 5 -85 8 -190 8 -104 0
-190 1 -190 3 0 7 41 208 50 242 5 22 10 50 10 63 l0 22 -235 0 c-129 0 -235
1 -235 3 0 5 40 200 60 292 12 55 30 141 40 190 10 50 25 119 33 155 8 36 18
82 21 102 l7 36 91 21 c161 37 307 133 412 270 85 110 126 227 126 359 0 152
-55 277 -168 383 -109 102 -229 149 -397 154 -60 2 -123 1 -140 -1z m200 -345
c58 -31 85 -58 111 -114 46 -98 20 -220 -66 -306 -76 -76 -119 -94 -225 -94
-96 0 -115 7 -178 64 -74 67 -92 192 -43 290 34 65 97 127 161 157 68 32 182
34 240 3z m-651 -667 c37 -41 114 -93 182 -124 l49 -23 -160 -3 -160 -4 -48
-66 c-26 -37 -75 -105 -109 -151 l-61 -85 -22 65 c-43 124 -75 227 -75 238 0
8 43 11 140 11 158 0 138 -13 160 100 6 30 15 72 21 93 l10 38 21 -28 c12 -15
35 -43 52 -61z m81 -569 c-15 -70 -38 -176 -51 -235 -13 -59 -24 -116 -24
-129 0 -18 -2 -19 -15 -9 -8 7 -15 18 -15 24 0 7 -18 56 -40 110 -22 54 -40
102 -40 108 0 12 203 268 208 263 3 -2 -8 -62 -23 -132z m-400 -538 l58 -175
62 0 63 0 -14 -67 c-7 -38 -25 -122 -38 -188 -23 -111 -36 -170 -80 -374 -29
-134 -105 -210 -209 -211 -51 0 -61 4 -93 33 -61 56 -61 87 1 367 30 137 63
291 80 378 l12 62 -84 0 c-45 0 -83 2 -83 5 0 3 33 47 73 98 39 50 98 127 131
170 32 42 59 77 61 77 1 0 28 -79 60 -175z m1047 -203 c-9 -15 -60 -85 -112
-155 l-95 -128 -47 148 c-27 81 -48 151 -48 155 0 4 72 8 160 8 l160 0 -18
-28z m-542 -346 c0 -6 14 -44 30 -85 17 -40 30 -79 30 -85 0 -7 -13 -25 -28
-42 -16 -16 -57 -66 -92 -112 -35 -45 -65 -81 -66 -79 -2 1 5 32 15 67 16 55
48 202 77 349 6 33 7 34 20 16 8 -10 14 -24 14 -29z"/>
<path d="M3393 869 c-40 -12 -101 -82 -109 -126 -8 -44 1 -75 31 -112 90 -106
275 -28 275 116 0 97 -90 153 -197 122z m122 -53 c67 -67 24 -180 -72 -193
-52 -7 -87 13 -111 63 -16 34 -16 37 8 80 27 52 59 73 113 74 27 0 45 -7 62
-24z"/>
<path d="M3381 753 c-7 -32 -15 -66 -17 -75 -8 -29 44 -24 56 5 l9 22 7 -22
c4 -16 14 -23 31 -23 20 0 23 4 18 20 -4 11 0 29 9 42 9 12 16 30 16 40 0 25
-39 48 -81 48 -36 0 -36 0 -48 -57z m69 -3 c0 -5 -4 -10 -10 -10 -5 0 -10 5
-10 10 0 6 5 10 10 10 6 0 10 -4 10 -10z"/>
</g>
</svg>
